<!DOCTYPE svg PUBLIC "-//W3C//DTD SVG 20010904//EN" "http://www.w3.org/TR/2001/REC-SVG-20010904/DTD/svg10.dtd">
<svg version="1.0" xmlns="http://www.w3.org/2000/svg" width="197px" height="197px" viewBox="0 0 1970 1970" preserveAspectRatio="xMidYMid meet">
<g id="layer101" fill="#026e56" stroke="none">
<path d="M0 985 l0 -985 985 0 985 0 0 985 0 985 -985 0 -985 0 0 -985z"/>
</g>
<g id="layer102" fill="#7a1448" stroke="none">
<path d="M0 985 l0 -985 985 0 985 0 0 985 0 985 -985 0 -985 0 0 -985z m1577 -201 c149 -86 143 -81 102 -99 -19 -9 -50 -26 -71 -38 -145 -87 -182 -107 -196 -107 -11 0 -37 35 -71 95 -29 53 -52 97 -50 98 2 2 15 8 29 15 14 7 39 21 55 32 17 11 46 28 65 39 19 10 36 19 37 20 1 1 46 -24 100 -55z"/>
</g>
<g id="layer103" fill="#036376" stroke="none">
<path d="M0 985 l0 -985 985 0 985 0 0 985 0 985 -985 0 -985 0 0 -985z m1710 259 l0 -166 -110 102 c-61 57 -108 105 -105 108 9 10 200 121 208 121 4 1 7 -74 7 -165z m-133 -460 c149 -86 143 -81 102 -99 -19 -9 -50 -26 -71 -38 -145 -87 -182 -107 -196 -107 -11 0 -37 35 -71 95 -29 53 -52 97 -50 98 2 2 15 8 29 15 14 7 39 21 55 32 17 11 46 28 65 39 19 10 36 19 37 20 1 1 46 -24 100 -55z"/>
</g>
<g id="layer104" fill="#9d201f" stroke="none">
<path d="M0 985 l0 -985 985 0 985 0 0 985 0 985 -985 0 -985 0 0 -985z m1090 656 l0 -129 -146 43 c-80 24 -148 46 -150 48 -6 6 267 166 284 167 9 0 12 -32 12 -129z m620 -397 l0 -166 -110 102 c-61 57 -108 105 -105 108 9 10 200 121 208 121 4 1 7 -74 7 -165z m-133 -460 c149 -86 143 -81 102 -99 -19 -9 -50 -26 -71 -38 -145 -87 -182 -107 -196 -107 -11 0 -37 35 -71 95 -29 53 -52 97 -50 98 2 2 15 8 29 15 14 7 39 21 55 32 17 11 46 28 65 39 19 10 36 19 37 20 1 1 46 -24 100 -55z"/>
</g>
<g id="layer105" fill="#583f4c" stroke="none">
<path d="M0 985 l0 -985 985 0 985 0 0 985 0 985 -985 0 -985 0 0 -985z m1090 656 l0 -129 -146 43 c-80 24 -148 46 -150 48 -6 6 267 166 284 167 9 0 12 -32 12 -129z m67 102 c26 -14 77 -43 112 -65 34 -21 66 -38 70 -38 3 0 16 -8 29 -18 23 -18 23 -18 -105 -56 -70 -21 -136 -41 -145 -43 -16 -5 -18 6 -18 121 0 69 2 126 5 126 2 0 26 -12 52 -27z m553 -499 l0 -166 -110 102 c-61 57 -108 105 -105 108 9 10 200 121 208 121 4 1 7 -74 7 -165z m-133 -460 c149 -86 143 -81 102 -99 -19 -9 -50 -26 -71 -38 -145 -87 -182 -107 -196 -107 -11 0 -37 35 -71 95 -29 53 -52 97 -50 98 2 2 15 8 29 15 14 7 39 21 55 32 17 11 46 28 65 39 19 10 36 19 37 20 1 1 46 -24 100 -55z"/>
</g>
<g id="layer106" fill="#048165" stroke="none">
<path d="M0 985 l0 -985 985 0 985 0 0 985 0 985 -985 0 -985 0 0 -985z m1148 763 c31 -17 86 -48 121 -70 34 -21 66 -38 70 -38 3 0 16 -8 29 -18 23 -18 21 -18 -128 -64 l-151 -45 -146 43 c-80 23 -147 45 -149 47 -4 4 283 176 294 177 2 0 29 -14 60 -32z m562 -504 l0 -166 -110 102 c-61 57 -108 105 -105 108 9 10 200 121 208 121 4 1 7 -74 7 -165z m-120 -464 c131 -75 132 -76 89 -95 -19 -9 -50 -26 -71 -38 -145 -87 -182 -107 -196 -107 -11 0 -37 35 -71 95 -29 53 -52 97 -50 98 2 2 15 8 29 15 14 7 39 21 55 32 34 22 97 57 106 59 3 1 52 -26 109 -59z"/>
<path d="M1471 814 c0 -11 3 -14 6 -6 3 7 2 16 -1 19 -3 4 -6 -2 -5 -13z"/>
<path d="M1461 774 c0 -11 3 -14 6 -6 3 7 2 16 -1 19 -3 4 -6 -2 -5 -13z"/>
<path d="M1450 730 c0 -7 3 -10 7 -7 3 4 3 10 0 14 -4 3 -7 0 -7 -7z"/>
<path d="M1440 690 c0 -7 3 -10 7 -7 3 4 3 10 0 14 -4 3 -7 0 -7 -7z"/>
<path d="M1431 644 c0 -11 3 -14 6 -6 3 7 2 16 -1 19 -3 4 -6 -2 -5 -13z"/>
<path d="M1421 604 c0 -11 3 -14 6 -6 3 7 2 16 -1 19 -3 4 -6 -2 -5 -13z"/>
<path d="M1411 564 c0 -11 3 -14 6 -6 3 7 2 16 -1 19 -3 4 -6 -2 -5 -13z"/>
</g>
<g id="layer107" fill="#8a1451" stroke="none">
<path d="M0 985 l0 -985 985 0 985 0 0 985 0 985 -985 0 -985 0 0 -985z m1148 763 c31 -17 86 -48 121 -70 34 -21 66 -38 70 -38 3 0 16 -8 29 -18 23 -18 21 -18 -128 -64 l-151 -45 -146 43 c-80 23 -147 45 -149 47 -4 4 283 176 294 177 2 0 29 -14 60 -32z m562 -504 l0 -166 -110 102 c-61 57 -108 105 -105 108 9 10 200 121 208 121 4 1 7 -74 7 -165z m-120 -464 c57 -32 107 -63 112 -68 8 -8 -64 -54 -312 -194 -19 -11 -92 -53 -162 -94 -70 -41 -130 -74 -133 -74 -3 0 -5 61 -5 135 l0 135 38 20 c65 36 134 76 237 138 55 33 105 61 111 61 6 1 57 -26 114 -59z m-507 8 c3 -18 9 -55 13 -81 l7 -49 -102 68 c-55 37 -101 71 -101 75 0 4 28 10 63 12 34 2 74 4 88 5 23 2 28 -3 32 -30z"/>
</g>
<g id="layer108" fill="#a1115b" stroke="none">
<path d="M0 985 l0 -985 985 0 985 0 0 985 0 985 -985 0 -985 0 0 -985z m1148 763 c31 -17 86 -48 121 -70 34 -21 66 -38 70 -38 3 0 16 -8 29 -18 23 -18 21 -18 -128 -64 l-151 -45 -146 43 c-80 23 -147 45 -149 47 -4 4 283 176 294 177 2 0 29 -14 60 -32z m572 -503 l0 -175 -120 0 -120 0 0 108 c0 99 2 108 21 121 24 14 72 42 139 79 25 13 49 28 55 33 5 5 13 9 17 9 4 0 8 -79 8 -175z m-118 -470 c59 -33 108 -63 108 -67 0 -5 -113 -73 -320 -190 -19 -11 -92 -53 -162 -94 -70 -41 -130 -74 -133 -74 -3 0 -5 61 -5 135 l0 135 38 20 c66 36 135 76 237 138 55 34 107 60 115 59 8 -1 63 -29 122 -62z m-519 13 c3 -18 9 -55 13 -81 l7 -49 -102 68 c-55 37 -101 71 -101 75 0 4 28 10 63 12 34 2 74 4 88 5 23 2 28 -3 32 -30z"/>
</g>
<g id="layer109" fill="#047693" stroke="none">
<path d="M0 985 l0 -985 985 0 985 0 0 985 0 985 -985 0 -985 0 0 -985z m1148 763 c31 -17 86 -48 121 -70 34 -21 66 -38 70 -38 3 0 16 -8 29 -18 23 -18 21 -18 -128 -64 l-151 -45 -146 43 c-80 23 -147 45 -149 47 -4 4 283 176 294 177 2 0 29 -14 60 -32z m572 -502 l0 -174 -62 -59 c-35 -33 -89 -83 -120 -113 l-58 -53 0 221 0 220 113 66 c61 36 115 65 120 65 4 1 7 -77 7 -173z m-120 -468 c60 -35 110 -66 110 -70 0 -5 -113 -72 -320 -190 -19 -11 -92 -53 -162 -94 -70 -41 -130 -74 -133 -74 -3 0 -5 61 -5 135 l0 135 38 20 c65 36 134 76 237 138 55 33 106 61 113 61 7 1 62 -27 122 -61z m-517 10 c3 -18 9 -55 13 -81 l7 -49 -102 68 c-55 37 -101 71 -101 75 0 4 28 10 63 12 34 2 74 4 88 5 23 2 28 -3 32 -30z"/>
</g>
<g id="layer110" fill="#698927" stroke="none">
<path d="M0 985 l0 -985 985 0 985 0 0 985 0 985 -985 0 -985 0 0 -985z m1148 763 c31 -17 86 -48 121 -70 34 -21 66 -38 70 -38 3 0 16 -8 29 -18 23 -18 22 -18 -116 -59 -129 -39 -173 -58 -296 -127 -40 -23 -50 -26 -61 -14 -23 24 -106 170 -103 180 3 7 285 177 296 178 2 0 29 -14 60 -32z m572 -502 l0 -174 -62 -59 c-35 -33 -89 -83 -120 -113 l-58 -53 0 221 0 220 113 66 c61 36 115 65 120 65 4 1 7 -77 7 -173z m-120 -468 c60 -35 110 -66 110 -70 0 -5 -113 -72 -320 -190 -19 -11 -92 -53 -162 -94 -70 -41 -130 -74 -133 -74 -3 0 -5 61 -5 135 l0 135 38 20 c65 36 134 76 237 138 55 33 106 61 113 61 7 1 62 -27 122 -61z m-517 10 c3 -18 9 -55 13 -81 l7 -49 -102 68 c-55 37 -101 71 -101 75 0 4 28 10 63 12 34 2 74 4 88 5 23 2 28 -3 32 -30z"/>
</g>
<g id="layer111" fill="#c92f31" stroke="none">
<path d="M0 985 l0 -985 985 0 985 0 0 985 0 985 -985 0 -985 0 0 -985z m1148 763 c31 -17 86 -48 121 -70 34 -21 66 -38 70 -38 3 0 16 -8 29 -18 23 -18 22 -18 -116 -59 -129 -39 -173 -58 -296 -127 -40 -23 -50 -26 -61 -14 -23 24 -106 170 -103 180 3 7 285 177 296 178 2 0 29 -14 60 -32z m-560 -390 c59 -34 110 -67 114 -73 4 -5 8 -56 8 -112 l0 -103 -108 0 c-71 0 -112 4 -120 12 -8 8 -12 62 -12 175 0 90 2 163 5 163 3 0 54 -28 113 -62z m1132 -112 l0 -174 -62 -59 c-35 -33 -89 -83 -120 -113 l-58 -53 0 221 0 220 113 66 c61 36 115 65 120 65 4 1 7 -77 7 -173z m-120 -468 c60 -35 110 -66 110 -70 0 -5 -113 -72 -320 -190 -19 -11 -92 -53 -162 -94 -70 -41 -130 -74 -133 -74 -3 0 -5 61 -5 135 l0 135 38 20 c65 36 134 76 237 138 55 33 106 61 113 61 7 1 62 -27 122 -61z m-517 10 c3 -18 9 -55 13 -81 l7 -49 -102 68 c-55 37 -101 71 -101 75 0 4 28 10 63 12 34 2 74 4 88 5 23 2 28 -3 32 -30z"/>
</g>
<g id="layer112" fill="#1483a6" stroke="none">
<path d="M0 985 l0 -985 985 0 985 0 0 985 0 985 -985 0 -985 0 0 -985z m1226 720 c60 -36 125 -73 145 -83 l35 -17 -60 -97 c-34 -54 -64 -98 -68 -98 -4 0 -46 23 -93 51 l-86 50 -47 -24 c-26 -13 -69 -36 -96 -51 -40 -23 -50 -26 -61 -14 -23 24 -106 170 -103 180 6 17 293 178 309 173 8 -3 65 -35 125 -70z m-638 -347 c59 -34 110 -67 114 -73 4 -5 8 -56 8 -112 l0 -103 -108 0 c-71 0 -112 4 -120 12 -8 8 -12 62 -12 175 0 90 2 163 5 163 3 0 54 -28 113 -62z m1132 -112 l0 -174 -62 -59 c-35 -33 -89 -83 -120 -113 l-58 -53 0 221 0 220 113 66 c61 36 115 65 120 65 4 1 7 -77 7 -173z m-120 -468 c60 -35 110 -66 110 -70 0 -5 -113 -72 -320 -190 -19 -11 -92 -53 -162 -94 -70 -41 -130 -74 -133 -74 -3 0 -5 61 -5 135 l0 135 38 20 c65 36 134 76 237 138 55 33 106 61 113 61 7 1 62 -27 122 -61z m-517 10 c3 -18 9 -55 13 -81 l7 -49 -102 68 c-55 37 -101 71 -101 75 0 4 28 10 63 12 34 2 74 4 88 5 23 2 28 -3 32 -30z"/>
<path d="M1063 1513 c4 -3 10 -3 14 0 3 4 0 7 -7 7 -7 0 -10 -3 -7 -7z"/>
</g>
<g id="layer113" fill="#7ba125" stroke="none">
<path d="M0 985 l0 -985 985 0 985 0 0 985 0 985 -985 0 -985 0 0 -985z m1226 720 c60 -36 125 -73 145 -83 l35 -17 -60 -97 c-34 -54 -64 -98 -68 -98 -4 0 -46 23 -93 51 -81 47 -87 49 -113 36 -71 -36 -282 -159 -325 -189 -16 -11 -30 -18 -32 -16 -2 1 13 73 33 158 l36 155 151 87 c82 48 157 85 166 83 8 -3 65 -35 125 -70z m-638 -347 c59 -34 110 -67 114 -73 4 -5 8 -56 8 -112 l0 -103 -108 0 c-71 0 -112 4 -120 12 -8 8 -12 62 -12 175 0 90 2 163 5 163 3 0 54 -28 113 -62z m1132 -112 l0 -174 -62 -59 c-35 -33 -89 -83 -120 -113 l-58 -53 0 221 0 220 113 66 c61 36 115 65 120 65 4 1 7 -77 7 -173z m-120 -468 c60 -35 110 -66 110 -70 0 -5 -113 -72 -320 -190 -19 -11 -92 -53 -162 -94 -70 -41 -130 -74 -133 -74 -3 0 -5 61 -5 135 l0 135 38 20 c65 36 134 76 237 138 55 33 106 61 113 61 7 1 62 -27 122 -61z m-517 10 c3 -18 9 -55 13 -81 l7 -49 -102 68 c-55 37 -101 71 -101 75 0 4 28 10 63 12 34 2 74 4 88 5 23 2 28 -3 32 -30z"/>
<path d="M645 1228 l-50 -53 53 50 c28 27 52 51 52 52 0 8 -9 -1 -55 -49z"/>
<path d="M530 1125 c-24 -25 -42 -45 -39 -45 3 0 25 20 49 45 24 25 42 45 39 45 -3 0 -25 -20 -49 -45z"/>
</g>
<g id="layer114" fill="#d96b14" stroke="none">
<path d="M0 985 l0 -985 985 0 985 0 0 985 0 985 -985 0 -985 0 0 -985z m1226 720 c60 -36 125 -73 145 -83 l35 -17 -60 -97 c-34 -54 -64 -98 -68 -98 -4 0 -46 23 -93 51 -81 47 -87 49 -113 36 -71 -36 -282 -159 -325 -189 -16 -11 -30 -18 -32 -16 -2 1 13 73 33 158 l36 155 151 87 c82 48 157 85 166 83 8 -3 65 -35 125 -70z m-631 -351 l115 -67 0 -219 c0 -184 -2 -218 -14 -211 -8 4 -62 54 -120 110 l-106 103 0 175 c0 96 2 175 5 175 3 0 57 -30 120 -66z m1125 -108 l0 -174 -62 -59 c-35 -33 -89 -83 -120 -113 l-58 -53 0 221 0 220 113 66 c61 36 115 65 120 65 4 1 7 -77 7 -173z m-120 -468 c60 -35 110 -66 110 -70 0 -5 -113 -72 -320 -190 -19 -11 -92 -53 -162 -94 -70 -41 -130 -74 -133 -74 -3 0 -5 61 -5 135 l0 135 38 20 c65 36 134 76 237 138 55 33 106 61 113 61 7 1 62 -27 122 -61z m-517 10 c3 -18 9 -55 13 -81 l7 -49 -102 68 c-55 37 -101 71 -101 75 0 4 28 10 63 12 34 2 74 4 88 5 23 2 28 -3 32 -30z"/>
</g>
<g id="layer115" fill="#c1267b" stroke="none">
<path d="M0 985 l0 -985 985 0 985 0 0 985 0 985 -985 0 -985 0 0 -985z m1226 720 c60 -36 125 -73 145 -83 l35 -17 -60 -97 c-34 -54 -64 -98 -68 -98 -4 0 -46 23 -93 51 -81 47 -87 49 -113 36 -71 -36 -282 -159 -325 -189 -16 -11 -30 -18 -32 -16 -2 1 13 73 33 158 l36 155 151 87 c82 48 157 85 166 83 8 -3 65 -35 125 -70z m-631 -351 l115 -67 0 -219 c0 -184 -2 -218 -14 -211 -8 4 -62 54 -120 110 l-106 103 0 175 c0 96 2 175 5 175 3 0 57 -30 120 -66z m1125 -108 l0 -174 -62 -59 c-35 -33 -89 -83 -120 -113 l-58 -53 0 221 0 220 113 66 c61 36 115 65 120 65 4 1 7 -77 7 -173z m-120 -468 c60 -35 110 -66 110 -70 0 -5 -113 -72 -320 -190 -19 -11 -92 -53 -162 -94 -70 -41 -130 -74 -133 -74 -3 0 -5 61 -5 135 l0 135 38 20 c65 36 134 76 237 138 55 33 106 61 113 61 7 1 62 -27 122 -61z m-517 10 c3 -18 9 -55 13 -81 l7 -49 -102 68 c-55 37 -101 71 -101 75 0 4 28 10 63 12 34 2 74 4 88 5 23 2 28 -3 32 -30z m-45 -175 c17 -9 32 -19 32 -22 0 -5 -190 -64 -283 -89 -12 -3 4 27 49 91 l67 96 51 -30 c28 -17 66 -38 84 -46z m-11 -205 c17 -57 30 -104 28 -106 -5 -6 -275 62 -273 69 3 8 199 139 209 139 3 0 19 -46 36 -102z"/>
</g>
<g id="layer116" fill="#da4444" stroke="none">
<path d="M0 985 l0 -985 985 0 985 0 0 985 0 985 -985 0 -985 0 0 -985z m1226 720 c60 -36 125 -73 145 -83 l35 -17 -60 -97 c-34 -54 -64 -98 -68 -98 -4 0 -46 23 -93 51 -81 47 -87 49 -113 36 -71 -36 -282 -159 -325 -189 -16 -11 -30 -18 -32 -16 -2 1 13 73 33 158 l36 155 151 87 c82 48 157 85 166 83 8 -3 65 -35 125 -70z m-631 -351 l115 -67 0 -219 c0 -184 -2 -218 -14 -211 -8 4 -62 54 -120 110 l-106 103 0 175 c0 96 2 175 5 175 3 0 57 -30 120 -66z m1125 -291 l0 -358 -142 -80 c-163 -92 -180 -102 -350 -201 -70 -41 -130 -74 -133 -74 -3 0 -5 61 -5 135 l0 135 38 20 c45 25 116 66 250 145 l102 60 0 221 0 222 113 66 c61 36 115 65 120 65 4 1 7 -160 7 -356z m-637 -275 c3 -18 9 -55 13 -81 l7 -49 -102 68 c-55 37 -101 71 -101 75 0 4 28 10 63 12 34 2 74 4 88 5 23 2 28 -3 32 -30z m-45 -175 c17 -9 32 -19 32 -22 0 -5 -190 -64 -283 -89 -12 -3 4 27 49 91 l67 96 51 -30 c28 -17 66 -38 84 -46z m-11 -205 c17 -57 30 -104 28 -106 -5 -6 -275 62 -273 69 3 8 199 139 209 139 3 0 19 -46 36 -102z"/>
</g>
<g id="layer117" fill="#98bf19" stroke="none">
<path d="M0 985 l0 -985 985 0 985 0 0 985 0 985 -985 0 -985 0 0 -985z m1207 731 c48 -29 114 -67 145 -84 31 -16 55 -32 53 -34 -2 -2 12 -66 31 -142 19 -76 34 -142 32 -147 -2 -4 -37 11 -78 34 -41 24 -124 71 -184 105 -102 58 -110 61 -135 49 -70 -36 -282 -160 -324 -189 -16 -11 -30 -18 -32 -16 -2 1 13 73 33 158 l36 155 151 87 c87 51 157 85 167 82 9 -3 56 -29 105 -58z m-612 -362 l115 -67 0 -219 c0 -184 -2 -218 -14 -211 -8 4 -62 54 -120 110 l-106 103 0 175 c0 96 2 175 5 175 3 0 57 -30 120 -66z m1125 -291 l0 -358 -142 -80 c-163 -92 -180 -102 -350 -201 -70 -41 -130 -74 -133 -74 -3 0 -5 61 -5 135 l0 135 38 20 c45 25 116 66 250 145 l102 60 0 221 0 222 113 66 c61 36 115 65 120 65 4 1 7 -160 7 -356z m-637 -275 c3 -18 9 -55 13 -81 l7 -49 -102 68 c-55 37 -101 71 -101 75 0 4 28 10 63 12 34 2 74 4 88 5 23 2 28 -3 32 -30z m-45 -175 c17 -9 32 -19 32 -22 0 -5 -190 -64 -283 -89 -12 -3 4 27 49 91 l67 96 51 -30 c28 -17 66 -38 84 -46z m-11 -205 c17 -57 30 -104 28 -106 -5 -6 -275 62 -273 69 3 8 199 139 209 139 3 0 19 -46 36 -102z"/>
</g>
<g id="layer118" fill="#ef9004" stroke="none">
<path d="M0 985 l0 -985 985 0 985 0 0 985 0 985 -985 0 -985 0 0 -985z m1207 731 c48 -29 114 -67 145 -84 31 -16 55 -32 53 -34 -2 -2 12 -66 31 -142 19 -76 34 -142 32 -147 -2 -4 -37 11 -78 34 -41 24 -124 71 -184 105 -102 58 -110 61 -135 49 -70 -36 -282 -160 -324 -189 -16 -11 -30 -18 -32 -16 -2 1 13 73 33 158 l36 155 151 87 c87 51 157 85 167 82 9 -3 56 -29 105 -58z m-612 -362 l115 -67 0 -219 c0 -184 -2 -218 -14 -211 -8 4 -62 54 -120 110 l-106 103 0 175 c0 96 2 175 5 175 3 0 57 -30 120 -66z m1125 -291 l0 -358 -142 -80 c-163 -92 -180 -102 -350 -201 -70 -41 -130 -74 -133 -74 -3 0 -5 61 -5 135 l0 135 38 20 c45 25 116 66 250 145 l102 60 0 221 0 222 113 66 c61 36 115 65 120 65 4 1 7 -160 7 -356z m-1166 -130 c53 -51 96 -94 96 -96 0 -3 -42 -28 -92 -58 -51 -29 -103 -59 -115 -67 l-23 -14 0 176 c0 207 -15 201 134 59z m298 -86 c-37 -22 -73 -42 -79 -44 -10 -4 -13 24 -13 118 l0 124 80 -80 79 -79 -67 -39z m231 -59 c3 -18 9 -55 13 -81 l7 -49 -102 68 c-55 37 -101 71 -101 75 0 4 28 10 63 12 34 2 74 4 88 5 23 2 28 -3 32 -30z m-45 -175 c17 -9 32 -19 32 -22 0 -5 -190 -64 -283 -89 -12 -3 4 27 49 91 l67 96 51 -30 c28 -17 66 -38 84 -46z m-11 -205 c17 -57 30 -104 28 -106 -5 -6 -275 62 -273 69 3 8 199 139 209 139 3 0 19 -46 36 -102z"/>
</g>
<g id="layer119" fill="#e46769" stroke="none">
<path d="M0 985 l0 -985 985 0 985 0 0 985 0 985 -985 0 -985 0 0 -985z m1207 731 c48 -29 114 -67 145 -84 31 -16 55 -32 53 -34 -2 -2 12 -66 31 -142 19 -76 34 -142 32 -147 -2 -4 -37 11 -78 34 -41 24 -124 71 -184 105 -102 58 -110 61 -135 49 -70 -36 -282 -160 -324 -189 -16 -11 -30 -18 -32 -16 -2 1 13 73 33 158 l36 155 151 87 c87 51 157 85 167 82 9 -3 56 -29 105 -58z m-612 -362 l115 -67 0 -219 c0 -184 -2 -218 -14 -211 -8 4 -62 54 -120 110 l-106 103 0 175 c0 96 2 175 5 175 3 0 57 -30 120 -66z m1125 -291 l0 -358 -142 -80 c-163 -92 -180 -102 -350 -201 -70 -41 -130 -74 -133 -74 -3 0 -5 61 -5 135 l0 135 38 20 c45 25 116 66 250 145 l102 60 0 221 0 222 113 66 c61 36 115 65 120 65 4 1 7 -160 7 -356z m-1166 -130 c53 -51 96 -94 96 -96 0 -3 -42 -28 -92 -58 -51 -29 -103 -59 -115 -67 l-23 -14 0 176 c0 207 -15 201 134 59z m298 -86 c-37 -22 -73 -42 -79 -44 -10 -4 -13 24 -13 118 l0 124 80 -80 79 -79 -67 -39z m231 -59 c3 -18 9 -55 13 -81 l7 -49 -102 68 c-55 37 -101 71 -101 75 0 4 28 10 63 12 34 2 74 4 88 5 23 2 28 -3 32 -30z m-335 -44 c53 -31 99 -57 100 -59 5 -5 -120 -185 -128 -185 -3 0 -22 68 -41 150 -20 83 -34 150 -32 150 2 0 48 -25 101 -56z m290 -131 c17 -9 32 -19 32 -22 0 -5 -190 -64 -283 -89 -12 -3 4 27 49 91 l67 96 51 -30 c28 -17 66 -38 84 -46z m-418 -85 l0 -133 -100 100 c-54 54 -97 101 -94 104 3 4 47 18 97 32 51 15 93 27 95 28 1 1 2 -59 2 -131z m407 -120 c17 -57 30 -104 28 -106 -5 -6 -275 62 -273 69 3 8 199 139 209 139 3 0 19 -46 36 -102z m-85 -210 l-62 -63 -40 45 c-74 83 -76 80 52 80 l113 0 -63 -62z"/>
</g>
<g id="layer120" fill="#38a8d8" stroke="none">
<path d="M0 985 l0 -985 985 0 985 0 0 985 0 985 -985 0 -985 0 0 -985z m1252 706 c59 -33 126 -71 150 -84 24 -12 105 -59 181 -102 l137 -80 0 -360 0 -360 -142 -80 c-163 -92 -180 -102 -350 -201 -70 -41 -130 -74 -133 -74 -3 0 -5 61 -5 135 l0 135 38 20 c45 25 116 66 250 145 l102 60 0 221 0 222 -172 98 c-95 53 -182 103 -193 110 -17 11 -25 11 -45 0 -89 -47 -283 -160 -323 -188 -16 -11 -30 -18 -32 -16 -2 1 13 73 33 158 l36 155 156 91 c153 89 155 90 180 74 14 -10 73 -45 132 -79z m-657 -337 l115 -67 0 -219 c0 -184 -2 -218 -14 -211 -8 4 -62 54 -120 110 l-106 103 0 175 c0 96 2 175 5 175 3 0 57 -30 120 -66z m-41 -421 c53 -51 96 -94 96 -96 0 -3 -42 -28 -92 -58 -51 -29 -103 -59 -115 -67 l-23 -14 0 176 c0 207 -15 201 134 59z m298 -86 c-37 -22 -73 -42 -79 -44 -10 -4 -13 24 -13 118 l0 124 80 -80 79 -79 -67 -39z m231 -59 c3 -18 9 -55 13 -81 l7 -49 -102 68 c-55 37 -101 71 -101 75 0 4 28 10 63 12 34 2 74 4 88 5 23 2 28 -3 32 -30z m-335 -44 c53 -31 99 -57 100 -59 5 -5 -120 -185 -128 -185 -3 0 -22 68 -41 150 -20 83 -34 150 -32 150 2 0 48 -25 101 -56z m290 -131 c17 -9 32 -19 32 -22 0 -5 -190 -64 -283 -89 -12 -3 4 27 49 91 l67 96 51 -30 c28 -17 66 -38 84 -46z m-418 -85 l0 -133 -100 100 c-54 54 -97 101 -94 104 3 4 47 18 97 32 51 15 93 27 95 28 1 1 2 -59 2 -131z m380 -12 c0 -2 14 -50 30 -106 17 -56 30 -105 28 -109 -2 -4 -70 9 -152 29 l-148 35 113 77 c105 70 129 84 129 74z m-58 -318 l-62 -63 -40 45 c-74 83 -76 80 52 80 l113 0 -63 -62z"/>
</g>
<g id="layer121" fill="#deda04" stroke="none">
<path d="M0 985 l0 -985 985 0 985 0 0 985 0 985 -985 0 -985 0 0 -985z m1252 706 c59 -33 126 -71 150 -84 24 -12 105 -59 181 -102 l137 -80 0 -360 0 -360 -142 -80 c-163 -92 -180 -102 -350 -201 -70 -41 -130 -74 -133 -74 -3 0 -5 61 -5 135 l0 135 38 20 c45 25 116 66 250 145 l102 60 0 221 0 222 -191 108 c-106 60 -197 108 -203 106 -6 -2 -93 -51 -193 -110 l-183 -106 -2 -220 -3 -221 -117 110 -117 110 0 180 -1 180 313 181 c309 178 312 180 337 164 14 -10 73 -45 132 -79z m-698 -758 c53 -51 96 -94 96 -96 0 -3 -42 -28 -92 -58 -51 -29 -103 -59 -115 -67 l-23 -14 0 176 c0 207 -15 201 134 59z m298 -86 c-37 -22 -73 -42 -79 -44 -10 -4 -13 24 -13 118 l0 124 80 -80 79 -79 -67 -39z m231 -59 c3 -18 9 -55 13 -81 l7 -49 -102 68 c-55 37 -101 71 -101 75 0 4 28 10 63 12 34 2 74 4 88 5 23 2 28 -3 32 -30z m-335 -44 c53 -31 99 -57 100 -59 5 -5 -120 -185 -128 -185 -3 0 -22 68 -41 150 -20 83 -34 150 -32 150 2 0 48 -25 101 -56z m290 -131 c17 -9 32 -19 32 -22 0 -5 -190 -64 -283 -89 -12 -3 4 27 49 91 l67 96 51 -30 c28 -17 66 -38 84 -46z m-418 -85 l0 -133 -100 100 c-54 54 -97 101 -94 104 3 4 47 18 97 32 51 15 93 27 95 28 1 1 2 -59 2 -131z m380 -12 c0 -2 14 -50 30 -106 17 -56 30 -105 28 -109 -2 -4 -70 9 -152 29 l-148 35 113 77 c105 70 129 84 129 74z m-58 -318 l-62 -63 -40 45 c-74 83 -76 80 52 80 l113 0 -63 -62z"/>
</g>
<g id="layer122" fill="#f9fafc" stroke="none">
<path d="M0 985 l0 -985 985 0 985 0 0 985 0 985 -985 0 -985 0 0 -985z m1252 706 c59 -33 126 -71 150 -84 24 -12 105 -59 181 -102 l137 -80 0 -360 0 -360 -142 -80 c-163 -92 -180 -102 -350 -201 -70 -41 -130 -74 -133 -74 -3 0 -5 61 -5 135 l0 135 38 20 c45 25 116 66 250 145 l102 60 0 221 0 222 -191 108 c-106 60 -197 108 -203 106 -6 -2 -93 -51 -193 -110 l-183 -106 -2 -220 -3 -221 -117 110 -117 110 0 180 -1 180 313 181 c309 178 312 180 337 164 14 -10 73 -45 132 -79z m-698 -758 c53 -51 96 -94 96 -96 0 -3 -42 -28 -92 -58 -51 -29 -103 -59 -115 -67 l-23 -14 0 176 c0 207 -15 201 134 59z m298 -86 c-37 -22 -73 -42 -79 -44 -10 -4 -13 24 -13 118 l0 124 80 -80 79 -79 -67 -39z m231 -59 c3 -18 9 -55 13 -81 l7 -49 -102 68 c-55 37 -101 71 -101 75 0 4 28 10 63 12 34 2 74 4 88 5 23 2 28 -3 32 -30z m-335 -44 c53 -31 99 -57 100 -59 5 -5 -120 -185 -128 -185 -3 0 -22 68 -41 150 -20 83 -34 150 -32 150 2 0 48 -25 101 -56z m290 -131 c17 -9 32 -19 32 -22 0 -5 -190 -64 -283 -89 -12 -3 4 27 49 91 l67 96 51 -30 c28 -17 66 -38 84 -46z m-752 31 c35 -20 64 -39 64 -42 0 -15 -85 -131 -91 -124 -6 6 -49 179 -49 196 0 11 10 7 76 -30z m334 -116 l0 -133 -100 100 c-54 54 -97 101 -94 104 3 4 47 18 97 32 51 15 93 27 95 28 1 1 2 -59 2 -131z m380 -12 c0 -2 14 -50 30 -106 17 -56 30 -105 28 -109 -2 -4 -70 9 -152 29 l-148 35 113 77 c105 70 129 84 129 74z m-371 -264 l-44 -49 -42 41 c-52 49 -45 56 56 56 l74 0 -44 -48z m313 -54 l-62 -63 -40 45 c-74 83 -76 80 52 80 l113 0 -63 -62z"/>
</g>


</svg>