<!DOCTYPE svg PUBLIC "-//W3C//DTD SVG 20010904//EN" "http://www.w3.org/TR/2001/REC-SVG-20010904/DTD/svg10.dtd">
<svg version="1.0" xmlns="http://www.w3.org/2000/svg" width="450px" height="300px" viewBox="0 0 4500 3000" preserveAspectRatio="xMidYMid meet">
<g id="layer101" fill="#433e3d" stroke="none">
<path d="M0 1500 l0 -1500 2250 0 2250 0 0 1500 0 1500 -2250 0 -2250 0 0 -1500z"/>
</g>
<g id="layer102" fill="#293f67" stroke="none">
<path d="M0 1500 l0 -1500 2250 0 2250 0 0 1500 0 1500 -2250 0 -2250 0 0 -1500z m3635 1062 c-3 -3 -11 0 -18 7 -9 10 -8 11 6 5 10 -3 15 -9 12 -12z m-255 -16 c0 -2 -8 -10 -17 -17 -16 -13 -17 -12 -4 4 13 16 21 21 21 13z m-50 -40 c0 -2 -8 -10 -17 -17 -16 -13 -17 -12 -4 4 13 16 21 21 21 13z m-50 -131 l45 -50 -47 45 c-27 24 -48 48 -48 54 0 5 1 7 3 5 1 -2 22 -27 47 -54z m400 11 c0 -3 -5 -8 -12 -12 -7 -4 -8 -3 -4 4 7 12 16 16 16 8z m-40 -29 c0 -2 -15 -16 -32 -33 l-33 -29 29 33 c28 30 36 37 36 29z m-250 -102 c19 -19 32 -35 29 -35 -3 0 -20 16 -39 35 -19 19 -32 35 -29 35 3 0 20 -16 39 -35z m180 31 c0 -2 -7 -7 -16 -10 -8 -3 -12 -2 -9 4 6 10 25 14 25 6z"/>
</g>
<g id="layer103" fill="#484443" stroke="none">
<path d="M0 1500 l0 -1500 2250 0 2250 0 0 1500 0 1500 -2250 0 -2250 0 0 -1500z m3635 1062 c-3 -3 -11 0 -18 7 -9 10 -8 11 6 5 10 -3 15 -9 12 -12z m-255 -16 c0 -2 -8 -10 -17 -17 -16 -13 -17 -12 -4 4 13 16 21 21 21 13z m-50 -40 c0 -2 -8 -10 -17 -17 -16 -13 -17 -12 -4 4 13 16 21 21 21 13z m-50 -131 l45 -50 -47 45 c-27 24 -48 48 -48 54 0 5 1 7 3 5 1 -2 22 -27 47 -54z m400 11 c0 -3 -5 -8 -12 -12 -7 -4 -8 -3 -4 4 7 12 16 16 16 8z m-40 -29 c0 -2 -15 -16 -32 -33 l-33 -29 29 33 c28 30 36 37 36 29z m-250 -102 c19 -19 32 -35 29 -35 -3 0 -20 16 -39 35 -19 19 -32 35 -29 35 3 0 20 -16 39 -35z m180 31 c0 -2 -7 -7 -16 -10 -8 -3 -12 -2 -9 4 6 10 25 14 25 6z m-833 -343 c-4 -3 -7 0 -7 7 0 7 3 10 7 7 3 -4 3 -10 0 -14z m-120 1 c-3 -3 -12 -4 -19 -1 -8 3 -5 6 6 6 11 1 17 -2 13 -5z m480 -51 c-4 -3 -7 0 -7 7 0 7 3 10 7 7 3 -4 3 -10 0 -14z m150 -10 c-4 -3 -10 -3 -14 0 -3 4 0 7 7 7 7 0 10 -3 7 -7z m-120 -20 c-4 -3 -10 -3 -14 0 -3 4 0 7 7 7 7 0 10 -3 7 -7z"/>
</g>
<g id="layer104" fill="#27436e" stroke="none">
<path d="M0 1500 l0 -1500 2250 0 2250 0 0 1500 0 1500 -2250 0 -2250 0 0 -1500z m3651 1061 c27 -28 29 -34 29 -108 l-1 -78 -90 -80 c-50 -44 -102 -89 -115 -100 l-25 -19 -113 119 c-63 66 -112 123 -110 127 3 4 45 44 94 88 l90 80 106 0 c103 0 106 -1 135 -29z m-1094 -598 c-4 -3 -7 0 -7 7 0 7 3 10 7 7 3 -4 3 -10 0 -14z m180 -15 c-3 -8 -6 -5 -6 6 -1 11 2 17 5 13 3 -3 4 -12 1 -19z m370 -10 c-3 -8 -6 -5 -6 6 -1 11 2 17 5 13 3 -3 4 -12 1 -19z m-490 6 c-3 -3 -12 -4 -19 -1 -8 3 -5 6 6 6 11 1 17 -2 13 -5z m90 -21 c-4 -3 -10 -3 -14 0 -3 4 0 7 7 7 7 0 10 -3 7 -7z m390 -30 c-4 -3 -7 0 -7 7 0 7 3 10 7 7 3 -4 3 -10 0 -14z m160 -9 c-3 -3 -12 -4 -19 -1 -8 3 -5 6 6 6 11 1 17 -2 13 -5z m70 -10 c-3 -3 -12 -4 -19 -1 -8 3 -5 6 6 6 11 1 17 -2 13 -5z m-200 -11 c-4 -3 -10 -3 -14 0 -3 4 0 7 7 7 7 0 10 -3 7 -7z m290 -30 c-4 -3 -10 -3 -14 0 -3 4 0 7 7 7 7 0 10 -3 7 -7z m-1719 -1586 l2 -179 -151 4 -151 3 -29 33 -29 32 0 138 c0 76 3 142 7 146 4 3 84 5 177 4 l171 -3 3 -178z"/>
</g>
<g id="layer105" fill="#2d5385" stroke="none">
<path d="M0 1500 l0 -1500 2250 0 2250 0 0 1500 0 1500 -2250 0 -2250 0 0 -1500z m3651 1061 c27 -28 29 -34 29 -108 l-1 -78 -90 -80 c-50 -44 -102 -89 -115 -100 l-25 -19 -113 119 c-63 66 -112 123 -110 127 3 4 45 44 94 88 l90 80 106 0 c103 0 106 -1 135 -29z m-1071 -546 c4 3 15 -6 24 -20 18 -28 61 -34 98 -14 20 11 21 9 14 -22 -8 -41 -8 -42 -40 -29 -15 5 -42 10 -59 10 -43 1 -74 24 -58 43 6 8 10 21 8 28 -2 8 -2 11 0 6 3 -4 8 -5 13 -2z m325 -26 c33 -6 85 -12 115 -15 34 -2 59 -10 66 -19 9 -13 13 -13 17 -3 3 7 3 -7 0 -32 -3 -25 -7 -47 -9 -49 -2 -2 -43 1 -91 8 -49 6 -104 13 -124 15 -20 2 -41 6 -47 10 -5 3 -17 3 -26 0 -9 -3 -22 -1 -30 5 -8 7 -20 10 -27 9 -18 -4 -23 35 -9 61 13 24 67 28 165 10z m385 -59 c146 -27 150 -28 127 -41 -9 -6 -22 -7 -28 -4 -6 4 -36 9 -67 11 -31 2 -64 6 -73 9 -10 3 -20 1 -24 -5 -3 -5 -3 -10 2 -10 11 0 131 -19 166 -26 15 -3 27 -12 27 -20 0 -10 -7 -13 -22 -10 -13 3 -83 10 -156 17 -128 12 -133 13 -128 33 3 12 6 33 6 48 0 31 -8 32 170 -2z m-1592 -1683 l2 -179 -151 4 -151 3 -29 33 -29 32 0 138 c0 76 3 142 7 146 4 3 84 5 177 4 l171 -3 3 -178z"/>
</g>
<g id="layer106" fill="#a86d32" stroke="none">
<path d="M0 1500 l0 -1500 2250 0 2250 0 0 1500 0 1500 -2250 0 -2250 0 0 -1500z m3651 1061 c27 -28 29 -34 29 -108 l-1 -78 -90 -80 c-50 -44 -102 -89 -115 -100 l-25 -19 -114 119 c-63 66 -114 123 -112 127 1 3 44 43 95 87 l94 81 105 0 c102 0 105 -1 134 -29z m-1055 -540 c-3 -5 2 -19 13 -32 17 -21 22 -22 66 -12 l47 11 -6 -31 c-3 -17 -7 -32 -9 -33 -3 -3 -149 25 -153 29 -2 2 -1 20 3 40 4 28 10 37 25 37 11 0 17 -4 14 -9z m369 -34 l140 -22 -3 -45 c-2 -25 -6 -47 -8 -49 -3 -3 -51 1 -107 8 -56 8 -122 15 -147 16 -25 2 -58 7 -75 12 -27 9 -30 14 -29 48 2 63 17 65 229 32z m359 -58 c105 -20 115 -24 100 -39 -6 -6 -43 -4 -99 4 -54 8 -94 10 -99 5 -6 -6 -6 -9 0 -9 12 0 130 -19 167 -26 30 -6 38 -34 10 -34 -25 0 -286 30 -289 33 -1 1 0 24 3 50 l6 48 51 -6 c28 -4 96 -15 150 -26z m-1624 -1680 l0 -181 -151 4 -151 3 -29 33 -29 32 0 145 0 145 180 0 180 0 0 -181z"/>
</g>
<g id="layer107" fill="#d47805" stroke="none">
<path d="M0 1500 l0 -1500 2250 0 2250 0 0 1500 0 1500 -2250 0 -2250 0 0 -1500z m3651 1061 c27 -28 29 -34 29 -108 l-1 -78 -90 -80 c-50 -44 -102 -89 -115 -100 l-25 -19 -114 119 c-63 66 -114 123 -112 127 1 3 44 43 95 87 l94 81 105 0 c102 0 105 -1 134 -29z m-1055 -539 c-3 -5 2 -19 11 -31 13 -20 22 -22 53 -17 21 3 45 9 54 12 14 5 15 2 7 -20 -6 -14 -6 -28 -2 -31 5 -2 12 11 15 30 5 26 13 36 32 41 14 4 96 -4 182 -17 149 -23 157 -25 156 -47 0 -12 3 -22 8 -22 4 0 8 9 8 21 0 19 4 20 53 14 72 -10 249 -43 254 -49 3 -3 2 -10 -2 -16 -4 -7 -22 -8 -48 -5 -23 4 -58 9 -77 11 -19 3 -43 7 -52 10 -10 3 -18 1 -18 -4 0 -9 133 -35 172 -34 9 0 18 -8 21 -19 4 -14 0 -19 -16 -19 -30 0 -248 25 -392 45 -66 10 -140 18 -165 20 -25 1 -85 12 -135 23 -49 11 -107 23 -127 26 -36 6 -38 9 -34 39 3 18 5 35 5 40 1 4 10 7 22 7 11 0 18 -4 15 -8z m-181 -12 c3 -5 1 -10 -4 -10 -6 0 -11 5 -11 10 0 6 2 10 4 10 3 0 8 -4 11 -10z m-715 -1761 l0 -181 -151 4 -151 3 -29 33 -29 32 0 145 0 145 180 0 180 0 0 -181z"/>
<path d="M3100 1891 c0 -25 6 -27 13 -6 4 8 2 17 -3 20 -6 4 -10 -3 -10 -14z"/>
</g>
<g id="layer108" fill="#926f5e" stroke="none">
<path d="M0 1500 l0 -1500 2250 0 2250 0 0 1500 0 1500 -2250 0 -2250 0 0 -1500z m3651 1061 c27 -28 29 -34 29 -108 l-1 -78 -90 -80 c-50 -44 -102 -89 -115 -100 l-25 -19 -114 119 c-63 66 -114 123 -112 127 1 3 44 43 95 87 l94 81 105 0 c102 0 105 -1 134 -29z m-1055 -539 c-3 -5 2 -19 11 -31 13 -20 22 -22 53 -17 21 3 46 9 56 13 12 4 15 3 10 -5 -4 -7 -2 -12 3 -12 6 0 11 7 11 15 0 27 49 28 208 4 149 -23 157 -25 156 -47 0 -12 3 -22 8 -22 4 0 8 9 8 20 0 24 0 24 116 5 173 -28 195 -35 189 -56 -4 -13 -2 -19 8 -19 21 0 30 -30 11 -37 -8 -3 -70 0 -137 6 -172 17 -207 23 -202 31 2 4 -7 5 -20 2 -14 -2 -62 1 -107 8 -46 7 -103 14 -128 15 -64 4 -294 55 -298 66 -2 5 -39 9 -81 9 -70 0 -80 2 -101 26 l-24 25 44 -5 c87 -10 135 -19 153 -28 13 -7 18 -6 16 4 -3 28 2 38 22 38 11 0 18 -4 15 -8z m-896 -1773 l0 -181 -151 4 -151 3 -29 33 -29 32 0 145 0 145 180 0 180 0 0 -181z"/>
<path d="M2715 1940 c3 -5 8 -10 11 -10 3 0 2 5 -1 10 -3 6 -8 10 -11 10 -3 0 -2 -4 1 -10z"/>
<path d="M3105 1900 c3 -5 8 -10 11 -10 3 0 2 5 -1 10 -3 6 -8 10 -11 10 -3 0 -2 -4 1 -10z"/>
<path d="M3235 1902 c6 -6 33 -14 60 -18 67 -8 83 -12 94 -19 5 -3 12 -1 16 5 3 5 3 10 -2 11 -4 1 -19 2 -33 4 -41 5 -104 16 -125 22 -14 4 -17 2 -10 -5z"/>
<path d="M1651 326 c-9 -10 -9 -16 -1 -21 17 -10 37 12 24 25 -8 8 -15 6 -23 -4z"/>
</g>
<g id="layer109" fill="#e77e06" stroke="none">
<path d="M0 1500 l0 -1500 2250 0 2250 0 0 1500 0 1500 -2250 0 -2250 0 0 -1500z m3651 1061 c27 -28 29 -34 29 -108 l-1 -78 -90 -80 c-50 -44 -102 -89 -116 -100 l-25 -20 -114 120 c-62 66 -112 123 -111 127 1 3 44 43 95 87 l94 81 105 0 c102 0 105 -1 134 -29z m-1055 -539 c-8 -13 23 -52 42 -52 9 0 47 9 83 21 l67 22 158 -24 c151 -23 158 -25 165 -49 7 -24 7 -24 8 -2 1 26 0 26 117 7 172 -28 196 -35 191 -56 -3 -11 0 -19 8 -19 20 0 27 -30 9 -37 -18 -7 -204 11 -404 38 -79 11 -153 18 -163 15 -10 -2 -40 2 -65 10 -26 8 -94 23 -152 34 -58 12 -106 25 -108 30 -2 6 -39 10 -81 10 -70 0 -80 2 -101 25 l-24 26 34 -2 c19 -1 49 -5 65 -9 74 -20 104 -19 110 1 4 10 15 19 26 19 11 0 18 -4 15 -8z m-896 -1773 l0 -181 -151 4 -151 3 -29 33 -29 32 0 145 0 145 180 0 180 0 0 -181z"/>
<path d="M3240 1897 c5 -5 35 -11 125 -23 56 -7 60 1 5 10 -78 13 -135 18 -130 13z"/>
</g>
<g id="layer110" fill="#d1772c" stroke="none">
<path d="M0 1500 l0 -1500 2250 0 2250 0 0 1500 0 1500 -2250 0 -2250 0 0 -1500z m3651 1061 c27 -28 29 -34 29 -108 l-1 -78 -90 -80 c-50 -44 -102 -89 -116 -100 l-25 -20 -114 120 c-62 66 -112 123 -111 127 1 3 44 43 95 87 l94 81 105 0 c102 0 105 -1 134 -29z m-1241 -546 c14 -1 48 -6 76 -10 40 -6 54 -4 67 9 16 16 52 23 43 8 -8 -13 23 -52 42 -52 9 0 47 9 84 21 l66 22 274 -42 c356 -54 371 -58 365 -82 -4 -14 0 -19 15 -19 13 0 18 -6 16 -17 -3 -16 -15 -18 -88 -16 -47 2 -157 12 -245 24 -88 12 -192 23 -230 25 -39 1 -83 7 -97 13 -15 6 -75 19 -135 31 -59 11 -109 25 -111 30 -2 6 -38 10 -80 10 -71 1 -80 3 -112 31 l-35 31 30 -7 c17 -4 41 -8 55 -10z m-710 -1766 l0 -181 -151 4 -151 3 -29 33 -29 32 0 145 0 145 180 0 180 0 0 -181z"/>
<path d="M3110 1930 c0 -7 3 -10 7 -7 3 4 3 10 0 14 -4 3 -7 0 -7 -7z"/>
<path d="M3280 1889 c0 -5 5 -7 10 -4 6 3 10 8 10 11 0 2 -4 4 -10 4 -5 0 -10 -5 -10 -11z"/>
<path d="M3354 1878 c-4 -7 -3 -8 4 -4 12 7 16 16 8 16 -3 0 -8 -5 -12 -12z"/>
</g>
<g id="layer111" fill="#f08705" stroke="none">
<path d="M0 1500 l0 -1500 2250 0 2250 0 0 1500 0 1500 -2250 0 -2250 0 0 -1500z m3651 1061 c27 -28 29 -34 29 -108 l-1 -78 -90 -80 c-50 -44 -102 -89 -116 -100 l-25 -20 -114 120 c-62 66 -112 123 -111 127 1 3 44 43 95 87 l94 81 105 0 c102 0 105 -1 134 -29z m-1179 -553 c50 -10 60 -9 76 5 19 17 57 24 48 9 -8 -13 23 -52 42 -52 9 0 47 9 84 21 l66 22 214 -32 c117 -17 264 -41 325 -52 105 -20 112 -22 102 -40 -8 -16 -6 -19 11 -19 15 0 20 -5 18 -17 -3 -16 -15 -18 -88 -16 -47 2 -157 12 -245 24 -88 12 -192 23 -230 25 -39 1 -83 7 -97 13 -15 6 -75 19 -135 31 -59 11 -109 25 -111 30 -2 6 -38 10 -80 10 -70 1 -80 3 -112 30 l-35 29 45 -5 c25 -2 71 -10 102 -16z m-772 -1759 l0 -181 -151 4 -151 3 -29 33 -29 32 0 145 0 145 180 0 180 0 0 -181z"/>
</g>
<g id="layer112" fill="#2c9ddc" stroke="none">
<path d="M0 1500 l0 -1500 2250 0 2250 0 0 1500 0 1500 -2250 0 -2250 0 0 -1500z m3651 1061 c27 -28 29 -34 29 -108 l-1 -78 -90 -80 c-50 -44 -102 -89 -116 -100 l-25 -20 -114 120 c-62 66 -112 123 -111 127 1 3 44 43 95 87 l94 81 105 0 c102 0 105 -1 134 -29z m-1166 -525 c33 -8 73 -12 89 -9 18 4 27 2 23 -4 -9 -14 21 -53 41 -53 9 0 47 9 84 21 l66 22 214 -32 c302 -45 436 -71 448 -86 7 -8 10 -24 8 -37 -3 -22 -6 -23 -88 -21 -47 2 -157 12 -245 24 -88 12 -192 23 -230 25 -39 1 -83 7 -97 13 -15 6 -75 19 -135 31 -59 11 -109 25 -111 30 -2 6 -37 10 -79 10 -66 0 -79 3 -110 27 l-36 27 29 13 c38 16 57 16 129 -1z m-785 -1787 l0 -181 -151 4 -151 3 -29 33 -29 32 0 145 0 145 180 0 180 0 0 -181z"/>
</g>
<g id="layer113" fill="#65b1e3" stroke="none">
<path d="M0 1500 l0 -1500 2250 0 2250 0 0 1500 0 1500 -2250 0 -2250 0 0 -1500z m3651 1061 c27 -28 29 -34 29 -108 l-1 -78 -90 -80 c-50 -44 -102 -89 -116 -100 l-25 -20 -114 120 c-62 66 -112 123 -111 127 1 3 44 43 95 87 l94 81 105 0 c102 0 105 -1 134 -29z m-1231 -95 c159 -29 344 -118 456 -219 l48 -44 -50 -18 c-27 -9 -64 -24 -81 -32 -18 -7 -51 -20 -74 -28 -100 -36 -144 -89 -112 -135 20 -28 60 -23 160 19 57 25 75 28 107 21 20 -4 46 -16 56 -25 13 -12 70 -24 182 -41 221 -32 317 -51 334 -65 19 -16 18 -58 -2 -66 -9 -3 -75 0 -146 6 -71 7 -131 11 -133 9 -2 -2 8 -46 22 -98 23 -82 26 -116 27 -245 0 -123 -4 -166 -22 -239 -45 -179 -141 -344 -275 -473 -191 -183 -410 -273 -668 -273 -169 0 -320 38 -471 117 -67 35 -76 47 -59 81 11 21 27 62 35 85 5 16 34 17 416 17 l410 0 0 565 c0 496 -2 565 -15 565 -8 0 -15 5 -15 10 0 6 -33 10 -77 10 -71 1 -81 3 -113 29 l-34 29 41 12 c34 11 53 10 112 -3 39 -9 78 -14 86 -11 12 5 15 26 15 105 l0 99 -492 0 -491 0 19 21 c47 52 196 138 311 178 141 50 340 65 493 37z m-902 -789 l-3 -447 -36 -29 c-30 -25 -38 -41 -48 -89 -6 -32 -17 -67 -24 -76 -13 -17 -14 -17 -29 5 -27 43 -76 183 -93 268 -24 117 -16 344 15 451 46 160 184 400 212 372 5 -5 7 -210 6 -455z m182 -1428 l0 -181 -151 4 -151 3 -29 33 -29 32 0 145 0 145 180 0 180 0 0 -181z"/>
<path d="M2590 1933 c0 -27 100 -95 200 -135 89 -36 103 -38 168 -26 121 22 192 51 192 78 0 8 -266 44 -277 37 -5 -3 -49 5 -98 18 -114 29 -185 40 -185 28z"/>
</g>
<g id="layer114" fill="#f6c89f" stroke="none">
<path d="M3215 2380 c-14 -15 -15 -23 -6 -33 9 -11 3 -20 -29 -41 -74 -49 -106 -64 -186 -86 -98 -26 -308 -105 -351 -131 -41 -26 -57 -69 -36 -99 20 -28 60 -23 160 19 57 25 75 28 107 21 20 -4 45 -15 55 -24 11 -10 58 -23 112 -31 52 -8 106 -17 120 -19 24 -5 29 0 44 39 9 26 45 75 84 117 57 61 71 71 83 60 12 -10 18 -8 33 8 17 19 15 22 -75 120 -51 55 -94 100 -95 100 -1 0 -10 -9 -20 -20z"/>
<path d="M1518 1720 c2 -323 0 -500 -7 -500 -26 0 -70 -52 -76 -93 -4 -23 -18 -69 -31 -102 -34 -88 -38 -130 -20 -233 9 -50 16 -133 16 -182 0 -83 -1 -90 -20 -90 -17 0 -20 -7 -20 -45 l0 -45 155 0 155 0 0 45 c0 33 -4 45 -15 45 -24 0 -18 28 29 129 25 53 51 113 60 134 l15 37 410 0 411 0 0 565 c0 496 -2 565 -15 565 -8 0 -15 5 -15 10 0 6 -33 10 -77 10 -71 1 -81 3 -113 29 l-34 29 41 12 c34 11 53 10 112 -3 39 -9 78 -14 86 -11 12 5 15 26 15 100 l0 94 -532 0 -533 0 3 -500z"/>
<path d="M2590 1932 c0 -17 76 -77 132 -104 97 -48 153 -61 222 -54 106 11 206 47 206 76 0 8 -265 44 -277 37 -5 -3 -49 5 -98 18 -118 30 -185 40 -185 27z"/>
</g>
<g id="layer115" fill="#f5ccaa" stroke="none">
<path d="M3215 2380 c-15 -16 -15 -22 -5 -35 7 -8 10 -15 8 -15 -3 0 27 -32 66 -70 l70 -70 -55 -58 -54 -57 57 54 c46 43 60 52 71 43 11 -9 18 -8 32 8 17 19 15 22 -75 120 -51 55 -94 100 -95 100 -1 0 -10 -9 -20 -20z"/>
<path d="M3176 2305 c-11 -8 -15 -15 -9 -15 6 0 16 7 23 15 16 19 11 19 -14 0z"/>
<path d="M3112 2266 c-29 -17 -38 -26 -25 -26 6 0 21 9 34 20 27 22 24 24 -9 6z"/>
<path d="M3010 2224 l-45 -14 45 6 c25 3 49 9 55 15 12 12 2 11 -55 -7z"/>
<path d="M1518 1722 l3 -498 -23 -12 c-19 -10 -20 -11 -2 -7 19 5 21 -2 33 -87 20 -145 41 -178 110 -178 35 0 39 9 50 118 7 68 23 122 36 122 2 0 3 -12 2 -27 -2 -25 2 -28 32 -31 l33 -3 -6 -92 c-3 -51 -13 -117 -22 -147 -26 -94 -27 -98 -14 -77 10 16 41 17 420 17 l410 0 0 563 0 563 -45 12 c-25 7 -66 12 -91 12 -34 0 -54 7 -81 27 l-36 28 38 16 c21 10 44 15 51 12 30 -11 140 -30 151 -26 9 4 13 33 13 99 l0 94 -532 0 -533 0 3 -498z m249 -519 c-4 -3 -10 -3 -14 0 -3 4 0 7 7 7 7 0 10 -3 7 -7z"/>
<path d="M2943 2203 c4 -3 10 -3 14 0 3 4 0 7 -7 7 -7 0 -10 -3 -7 -7z"/>
<path d="M2853 2173 c4 -3 10 -3 14 0 3 4 0 7 -7 7 -7 0 -10 -3 -7 -7z"/>
<path d="M2670 2105 c-14 -8 -20 -14 -15 -14 6 0 21 6 35 14 14 8 21 14 15 14 -5 0 -21 -6 -35 -14z"/>
<path d="M2635 2070 c-4 -6 -12 -7 -18 -4 -7 4 -9 4 -5 0 4 -5 2 -19 -3 -33 -7 -20 -6 -30 7 -44 22 -24 46 -24 75 0 22 18 22 19 6 44 -21 32 -53 51 -62 37z"/>
<path d="M3229 2053 c-13 -16 -12 -17 4 -4 16 13 21 21 13 21 -2 0 -10 -8 -17 -17z"/>
<path d="M2784 2024 c-18 -14 -18 -14 6 -3 31 14 36 19 24 19 -6 0 -19 -7 -30 -16z"/>
<path d="M2880 2036 c0 -2 7 -7 16 -10 8 -3 12 -2 9 4 -6 10 -25 14 -25 6z"/>
<path d="M3205 2019 c-4 -6 -5 -12 -2 -15 2 -3 7 2 10 11 7 17 1 20 -8 4z"/>
<path d="M2920 2016 c0 -2 8 -10 18 -17 15 -13 16 -12 3 4 -13 16 -21 21 -21 13z"/>
<path d="M2993 1983 c4 -3 10 -3 14 0 3 4 0 7 -7 7 -7 0 -10 -3 -7 -7z"/>
<path d="M3186 1975 c-9 -26 -7 -32 5 -12 6 10 9 21 6 23 -2 3 -7 -2 -11 -11z"/>
<path d="M2590 1931 c0 -5 7 -15 17 -22 15 -13 15 -12 4 9 -12 23 -21 28 -21 13z"/>
<path d="M2665 1860 c3 -5 8 -10 11 -10 3 0 2 5 -1 10 -3 6 -8 10 -11 10 -3 0 -2 -4 1 -10z"/>
<path d="M2690 1850 c0 -7 3 -10 7 -7 3 4 3 10 0 14 -4 3 -7 0 -7 -7z"/>
<path d="M3126 1845 c4 -8 10 -12 15 -9 14 8 10 24 -6 24 -9 0 -12 -6 -9 -15z"/>
<path d="M2710 1835 c0 -8 73 -36 78 -30 3 3 3 5 0 5 -3 0 -22 7 -42 15 -20 8 -36 13 -36 10z"/>
<path d="M2998 1783 c7 -3 16 -2 19 1 4 3 -2 6 -13 5 -11 0 -14 -3 -6 -6z"/>
<path d="M1449 1173 c-13 -16 -12 -17 4 -4 16 13 21 21 13 21 -2 0 -10 -8 -17 -17z"/>
<path d="M1420 1070 c0 -7 3 -10 7 -7 3 4 3 10 0 14 -4 3 -7 0 -7 -7z"/>
<path d="M1377 945 c-4 -22 -6 -53 -6 -70 1 -16 5 -3 10 30 10 67 6 102 -4 40z"/>
<path d="M1382 805 c0 -16 2 -22 5 -12 2 9 2 23 0 30 -3 6 -5 -1 -5 -18z"/>
<path d="M1392 750 c0 -14 2 -19 5 -12 2 6 2 18 0 25 -3 6 -5 1 -5 -13z"/>
<path d="M1404 635 c0 -49 1 -71 3 -48 2 23 2 64 0 90 -2 26 -3 8 -3 -42z"/>
<path d="M1700 699 c-7 -11 -10 -23 -7 -25 2 -2 9 7 15 21 14 30 7 33 -8 4z"/>
<path d="M1650 598 c-11 -24 -20 -48 -20 -54 0 -19 -26 -24 -125 -24 -65 0 -95 4 -98 13 -4 10 -6 10 -6 0 -1 -7 -10 -13 -21 -13 -17 0 -20 -7 -20 -45 l0 -45 155 0 155 0 0 45 c0 33 -4 45 -15 45 -20 0 -19 26 5 78 10 23 17 42 14 42 -3 0 -14 -19 -24 -42z"/>
</g>
<g id="layer116" fill="#d7d8d9" stroke="none">
<path d="M0 1500 l0 -1500 2250 0 2250 0 0 1500 0 1500 -2250 0 -2250 0 0 -1500z m2532 1400 c253 -53 499 -182 683 -358 75 -72 58 -74 152 10 l43 38 106 0 c103 0 106 -1 135 -29 27 -28 29 -34 29 -110 0 -58 -4 -82 -14 -88 -8 -4 -52 -43 -98 -85 l-85 -76 42 -85 c105 -215 151 -462 134 -722 -14 -198 -57 -353 -149 -540 -249 -500 -776 -810 -1331 -782 -129 7 -277 34 -388 72 -41 14 -78 25 -83 25 -4 0 -8 -23 -8 -51 l0 -51 -151 4 -151 3 -29 33 c-29 32 -29 32 -29 166 0 125 -1 135 -20 141 -32 10 -188 184 -256 286 -107 160 -183 345 -221 536 -26 134 -24 416 5 546 60 271 176 499 352 689 233 253 511 393 895 452 72 11 343 -4 437 -24z"/>
<path d="M3215 2380 c-21 -23 -23 -19 89 -137 l50 -53 -49 -52 -50 -53 52 49 c42 39 55 47 66 38 11 -9 18 -8 32 8 17 19 15 22 -75 120 -51 55 -94 100 -95 100 -1 0 -10 -9 -20 -20z"/>
<path d="M3084 2248 c-4 -7 -3 -8 4 -4 12 7 16 16 8 16 -3 0 -8 -5 -12 -12z"/>
<path d="M3013 2223 c4 -3 10 -3 14 0 3 4 0 7 -7 7 -7 0 -10 -3 -7 -7z"/>
<path d="M1518 1720 c3 -407 1 -500 -10 -500 -9 0 -10 -3 -2 -8 6 -4 18 -50 27 -103 9 -53 22 -108 28 -122 21 -47 100 -60 113 -19 3 9 8 51 11 92 6 76 25 124 57 144 13 8 21 7 30 -2 19 -20 16 -272 -5 -334 l-15 -48 414 0 414 0 0 563 0 564 -51 11 c-28 7 -69 12 -92 12 -28 0 -53 8 -80 27 l-38 27 44 17 c40 16 50 16 98 4 30 -8 69 -15 87 -15 l32 0 0 95 0 95 -532 0 -533 0 3 -500z"/>
<path d="M2973 2213 c4 -3 10 -3 14 0 3 4 0 7 -7 7 -7 0 -10 -3 -7 -7z"/>
<path d="M3234 2058 c-4 -7 -3 -8 4 -4 7 4 12 9 12 12 0 8 -9 4 -16 -8z"/>
<path d="M2925 2010 c3 -5 8 -10 11 -10 3 0 2 5 -1 10 -3 6 -8 10 -11 10 -3 0 -2 -4 1 -10z"/>
<path d="M2590 1926 c0 -2 8 -10 18 -17 15 -13 16 -12 3 4 -13 16 -21 21 -21 13z"/>
<path d="M2715 1830 c3 -5 8 -10 11 -10 3 0 2 5 -1 10 -3 6 -8 10 -11 10 -3 0 -2 -4 1 -10z"/>
<path d="M3003 1783 c4 -3 10 -3 14 0 3 4 0 7 -7 7 -7 0 -10 -3 -7 -7z"/>
<path d="M1444 1168 c-4 -7 -3 -8 4 -4 12 7 16 16 8 16 -3 0 -8 -5 -12 -12z"/>
<path d="M1373 890 c0 -25 2 -35 4 -22 2 12 2 32 0 45 -2 12 -4 2 -4 -23z"/>
<path d="M1380 790 c0 -7 3 -10 7 -7 3 4 3 10 0 14 -4 3 -7 0 -7 -7z"/>
<path d="M1390 740 c0 -7 3 -10 7 -7 3 4 3 10 0 14 -4 3 -7 0 -7 -7z"/>
<path d="M1403 625 c0 -38 2 -53 4 -32 2 20 2 52 0 70 -2 17 -4 1 -4 -38z"/>
<path d="M1360 475 l0 -45 155 0 155 0 0 45 0 45 -155 0 -155 0 0 -45z"/>
<path d="M1652 386 c1 -10 8 -17 13 -17 15 1 12 24 -3 29 -9 3 -13 -2 -10 -12z"/>
<path d="M1645 321 c-7 -12 12 -24 25 -16 11 7 4 25 -10 25 -5 0 -11 -4 -15 -9z"/>
</g>
<g id="layer117" fill="#f2dcc9" stroke="none">
<path d="M3210 2375 c-10 -12 -4 -25 38 -72 28 -32 70 -77 94 -101 44 -42 44 -42 63 -23 17 20 16 22 -43 86 -62 66 -126 125 -135 125 -2 0 -10 -7 -17 -15z"/>
<path d="M1518 1703 c3 -521 10 -644 43 -717 21 -46 101 -59 113 -18 2 9 7 38 11 64 6 45 5 47 -22 51 l-28 4 28 2 c21 1 27 6 27 25 0 29 40 90 63 94 28 6 39 -44 35 -158 l-3 -105 343 3 c337 2 342 2 342 -18 0 -19 -7 -20 -346 -22 l-347 -3 -12 -42 -13 -43 414 0 414 0 0 560 0 560 -27 11 c-16 6 -57 13 -93 16 -48 4 -75 12 -103 31 l-38 26 44 17 c41 16 50 16 100 3 31 -8 70 -13 87 -12 l30 2 0 93 0 93 -532 0 -533 0 3 -517z m275 430 c-7 -2 -19 -2 -25 0 -7 3 -2 5 12 5 14 0 19 -2 13 -5z m595 0 c-43 -2 -113 -2 -155 0 -43 1 -8 3 77 3 85 0 120 -2 78 -3z m-638 -7 c0 -2 -7 -7 -16 -10 -8 -3 -12 -2 -9 4 6 10 25 14 25 6z m115 -26 c10 -11 16 -20 13 -20 -3 0 -13 9 -23 20 -10 11 -16 20 -13 20 3 0 13 -9 23 -20z m460 -20 c17 -19 17 -19 -13 -8 -17 7 -29 16 -26 20 8 13 20 9 39 -12z m-625 6 c0 -3 -5 -8 -12 -12 -7 -4 -8 -3 -4 4 7 12 16 16 16 8z m130 -16 c16 -16 29 -60 17 -60 -2 0 -21 18 -42 40 -35 36 -37 40 -17 40 12 0 31 -9 42 -20z m57 -17 c-4 -3 -7 0 -7 7 0 7 3 10 7 7 3 -4 3 -10 0 -14z m-210 -45 c-2 -13 -4 -5 -4 17 -1 22 1 32 4 23 2 -10 2 -28 0 -40z m137 -40 c-10 -15 -54 -8 -74 12 -11 11 -20 33 -20 51 l0 30 49 -42 c28 -24 48 -47 45 -51z m67 9 c-10 -9 -11 -8 -5 6 3 10 9 15 12 12 3 -3 0 -11 -7 -18z m-84 -64 c-4 -3 -10 -3 -14 0 -3 4 0 7 7 7 7 0 10 -3 7 -7z m461 -90 c-114 -2 -303 -2 -420 0 -117 1 -24 2 207 2 231 0 327 -1 213 -2z m0 -160 c-114 -2 -303 -2 -420 0 -117 1 -24 2 207 2 231 0 327 -1 213 -2z m0 -50 c-114 -2 -303 -2 -420 0 -117 1 -24 2 207 2 231 0 327 -1 213 -2z m199 -110 c-4 -3 -10 -3 -14 0 -3 4 0 7 7 7 7 0 10 -3 7 -7z m-194 -50 c-117 -2 -309 -2 -425 0 -117 1 -22 2 212 2 234 0 329 -1 213 -2z m-35 -50 c-109 -2 -287 -2 -395 0 -109 1 -20 2 197 2 217 0 306 -1 198 -2z m229 0 c-4 -3 -10 -3 -14 0 -3 4 0 7 7 7 7 0 10 -3 7 -7z m-199 -110 c-115 -2 -301 -2 -415 0 -115 1 -21 2 207 2 228 0 322 -1 208 -2z m0 -50 c-114 -2 -303 -2 -420 0 -117 1 -24 2 207 2 231 0 327 -1 213 -2z m-415 -110 c-7 -2 -19 -2 -25 0 -7 3 -2 5 12 5 14 0 19 -2 13 -5z m590 0 c-7 -2 -19 -2 -25 0 -7 3 -2 5 12 5 14 0 19 -2 13 -5z m-135 -50 c-93 -2 -243 -2 -335 0 -93 1 -17 3 167 3 184 0 260 -2 168 -3z m-45 -50 c-84 -2 -222 -2 -305 0 -84 1 -16 3 152 3 168 0 236 -2 153 -3z m204 0 c-4 -3 -10 -3 -14 0 -3 4 0 7 7 7 7 0 10 -3 7 -7z"/>
<path d="M2626 2038 c-27 -38 17 -65 57 -35 16 11 16 14 2 35 -20 28 -40 28 -59 0z"/>
<path d="M1740 1181 c-17 -33 -12 -51 15 -51 26 0 29 9 19 48 -8 27 -20 28 -34 3z"/>
<path d="M1360 473 l0 -43 155 0 155 0 0 45 0 44 -155 -1 -155 -1 0 -44z"/>
</g>
<g id="layer118" fill="#e1dfe1" stroke="none">
<path d="M3210 2375 c-10 -13 3 -31 81 -114 92 -96 94 -98 113 -80 19 18 18 19 -42 83 -62 67 -126 126 -135 126 -2 0 -10 -7 -17 -15z"/>
<path d="M1517 1718 c2 -401 6 -522 19 -598 24 -146 38 -170 99 -170 30 0 45 30 45 90 0 32 -4 39 -22 43 -20 4 -21 4 -3 6 15 1 25 15 38 51 21 58 58 90 82 70 10 -8 15 -31 15 -66 l0 -54 338 -3 337 -2 -337 -3 -338 -2 0 -65 0 -65 340 0 c333 0 340 0 340 -20 0 -20 -7 -20 -343 -20 l-344 0 -11 -39 c-7 -21 -12 -41 -12 -45 0 -3 185 -6 410 -6 l410 0 0 560 0 560 -27 11 c-16 6 -59 13 -98 16 -53 5 -78 12 -103 31 -37 28 -33 35 30 52 25 7 45 7 64 -1 16 -6 53 -12 81 -14 l53 -4 0 94 0 95 -532 0 -533 0 2 -502z m276 415 c-7 -2 -19 -2 -25 0 -7 3 -2 5 12 5 14 0 19 -2 13 -5z m595 0 c-43 -2 -113 -2 -155 0 -43 1 -8 3 77 3 85 0 120 -2 78 -3z m-638 -7 c0 -2 -7 -7 -16 -10 -8 -3 -12 -2 -9 4 6 10 25 14 25 6z m115 -26 c10 -11 16 -20 13 -20 -3 0 -13 9 -23 20 -10 11 -16 20 -13 20 3 0 13 -9 23 -20z m460 -20 c17 -19 17 -19 -13 -8 -17 7 -29 16 -26 20 8 13 20 9 39 -12z m-625 6 c0 -3 -5 -8 -12 -12 -7 -4 -8 -3 -4 4 7 12 16 16 16 8z m130 -16 c16 -16 29 -60 17 -60 -2 0 -21 18 -42 40 -35 36 -37 40 -17 40 12 0 31 -9 42 -20z m57 -17 c-4 -3 -7 0 -7 7 0 7 3 10 7 7 3 -4 3 -10 0 -14z m-210 -45 c-2 -13 -4 -5 -4 17 -1 22 1 32 4 23 2 -10 2 -28 0 -40z m137 -40 c-10 -15 -54 -8 -74 12 -11 11 -20 33 -20 51 l0 30 49 -42 c28 -24 48 -47 45 -51z m67 9 c-10 -9 -11 -8 -5 6 3 10 9 15 12 12 3 -3 0 -11 -7 -18z m-84 -64 c-4 -3 -10 -3 -14 0 -3 4 0 7 7 7 7 0 10 -3 7 -7z m461 -90 c-114 -2 -303 -2 -420 0 -117 1 -24 2 207 2 231 0 327 -1 213 -2z m0 -160 c-114 -2 -303 -2 -420 0 -117 1 -24 2 207 2 231 0 327 -1 213 -2z m0 -50 c-114 -2 -303 -2 -420 0 -117 1 -24 2 207 2 231 0 327 -1 213 -2z m199 -110 c-4 -3 -10 -3 -14 0 -3 4 0 7 7 7 7 0 10 -3 7 -7z m-194 -50 c-117 -2 -309 -2 -425 0 -117 1 -22 2 212 2 234 0 329 -1 213 -2z m-35 -50 c-109 -2 -287 -2 -395 0 -109 1 -20 2 197 2 217 0 306 -1 198 -2z m229 0 c-4 -3 -10 -3 -14 0 -3 4 0 7 7 7 7 0 10 -3 7 -7z m-199 -110 c-115 -2 -301 -2 -415 0 -115 1 -21 2 207 2 228 0 322 -1 208 -2z m0 -50 c-114 -2 -303 -2 -420 0 -117 1 -24 2 207 2 231 0 327 -1 213 -2z m-415 -110 c-7 -2 -19 -2 -25 0 -7 3 -2 5 12 5 14 0 19 -2 13 -5z m590 0 c-7 -2 -19 -2 -25 0 -7 3 -2 5 12 5 14 0 19 -2 13 -5z m-180 -100 c-84 -2 -222 -2 -305 0 -84 1 -16 3 152 3 168 0 236 -2 153 -3z m204 0 c-4 -3 -10 -3 -14 0 -3 4 0 7 7 7 7 0 10 -3 7 -7z"/>
<path d="M1360 473 l0 -43 155 0 155 0 0 45 0 45 -155 -2 -155 -2 0 -43z"/>
<path d="M1647 324 c-8 -8 1 -24 14 -24 5 0 9 7 9 15 0 15 -12 20 -23 9z"/>
</g>
<g id="layer119" fill="#cae9fd" stroke="none">
<path d="M0 1500 l0 -1500 2250 0 2250 0 0 1500 0 1500 -2250 0 -2250 0 0 -1500z m2532 1400 c252 -53 499 -182 681 -356 35 -34 69 -59 75 -55 6 4 35 28 65 55 l54 48 94 0 c132 0 127 1 154 -27 23 -22 25 -32 25 -109 l0 -84 -37 -32 c-21 -18 -65 -57 -98 -86 l-61 -54 41 -84 c105 -214 151 -462 134 -721 -14 -198 -57 -353 -149 -540 -249 -500 -776 -810 -1331 -782 -129 7 -277 34 -388 72 -41 14 -78 25 -83 25 -4 0 -8 -23 -8 -51 l0 -50 -156 3 -156 3 -24 28 c-23 27 -24 35 -24 167 0 129 -1 139 -20 145 -32 10 -188 184 -256 286 -107 160 -183 345 -221 536 -26 134 -24 416 5 546 60 271 176 499 352 689 233 253 511 393 895 452 72 11 343 -4 437 -24z"/>
<path d="M3210 2375 c-10 -13 3 -31 81 -114 86 -89 96 -97 111 -83 12 10 15 19 8 31 -12 22 -170 181 -180 181 -4 0 -13 -7 -20 -15z"/>
<path d="M1517 1718 c2 -401 6 -522 19 -598 24 -146 38 -170 99 -170 30 0 45 30 45 90 0 36 -2 39 -32 43 l-33 4 31 1 c22 2 33 8 37 22 4 17 0 20 -30 20 -21 0 -32 4 -28 11 4 6 19 7 35 4 22 -5 31 -2 39 14 15 27 16 27 -29 23 -25 -3 -40 0 -40 7 0 6 19 11 46 11 25 0 55 5 66 11 14 8 23 8 31 0 8 -8 119 -11 354 -11 222 0 343 -4 343 -10 0 -6 -120 -10 -341 -10 -319 0 -340 -1 -337 -17 3 -17 30 -18 343 -23 l340 -5 -342 -3 c-336 -2 -343 -2 -343 -22 0 -20 7 -20 343 -22 l342 -3 -340 -5 c-313 -5 -340 -6 -343 -22 -3 -17 18 -18 339 -18 188 0 340 -3 337 -6 -4 -3 -156 -6 -340 -7 l-333 -2 -3 -37 -3 -38 340 0 c334 0 341 0 341 -20 0 -20 -7 -20 -341 -20 l-340 0 -15 -35 c-7 -19 -14 -39 -14 -45 0 -7 135 -10 410 -10 l410 0 0 560 0 560 -27 11 c-16 6 -59 13 -98 16 -53 5 -78 12 -103 31 -29 22 -30 26 -16 36 14 11 13 14 -12 30 -22 15 -31 16 -46 7 -17 -11 -18 -10 -9 8 18 33 28 33 65 0 27 -23 42 -30 60 -25 14 3 37 1 53 -5 15 -6 52 -12 81 -14 l53 -4 -3 92 -3 92 -530 3 -530 2 2 -502z m286 445 c-7 -2 -21 -2 -30 0 -10 3 -4 5 12 5 17 0 24 -2 18 -5z m-81 -23 c-61 -37 -85 -102 -62 -167 9 -26 9 -27 -5 -9 -42 55 18 196 84 196 9 0 2 -8 -17 -20z m115 13 c-4 -3 -10 -3 -14 0 -3 4 0 7 7 7 7 0 10 -3 7 -7z m69 -58 c9 -18 14 -38 11 -46 -3 -9 -6 -6 -6 8 -1 12 -16 39 -33 59 -24 27 -27 33 -11 23 12 -7 30 -27 39 -44z m-67 30 c63 -32 77 -132 24 -181 -76 -70 -193 -20 -193 84 0 38 5 49 36 78 40 38 85 45 133 19z m559 8 c-42 -2 -114 -2 -160 0 -46 1 -11 3 77 3 88 0 125 -2 83 -3z m-619 -244 c31 -6 32 -7 8 -8 -28 -1 -101 30 -112 49 -3 5 10 0 31 -12 20 -12 53 -25 73 -29z m484 -66 c-116 -2 -310 -2 -430 0 -120 1 -24 2 212 2 237 0 335 -1 218 -2z m0 -50 c-117 -2 -309 -2 -425 0 -117 1 -22 2 212 2 234 0 329 -1 213 -2z m202 -53 c4 -7 -138 -10 -420 -10 -282 0 -424 3 -420 10 4 6 155 10 420 10 265 0 416 -4 420 -10z m-202 -57 c-116 -2 -310 -2 -430 0 -120 1 -24 2 212 2 237 0 335 -1 218 -2z m0 -50 c-116 -2 -310 -2 -430 0 -120 1 -24 2 212 2 237 0 335 -1 218 -2z m207 -53 c0 -6 -130 -10 -370 -10 -240 0 -370 4 -370 10 0 6 130 10 370 10 240 0 370 -4 370 -10z m-2 -55 c3 -3 -185 -5 -417 -5 -232 0 -420 3 -418 8 6 8 827 6 835 -3z m-205 -52 c-116 -2 -310 -2 -430 0 -120 1 -24 2 212 2 237 0 335 -1 218 -2z m205 -48 c-7 -7 -839 -7 -846 0 -3 3 187 5 423 5 236 0 426 -2 423 -5z m2 -55 c0 -6 -130 -10 -371 -10 -244 0 -368 3 -364 10 4 6 138 10 371 10 236 0 364 -4 364 -10z m-207 -57 c-116 -2 -310 -2 -430 0 -120 1 -24 2 212 2 237 0 335 -1 218 -2z m205 -48 c-7 -7 -840 -6 -847 0 -2 3 188 5 424 5 236 0 426 -2 423 -5z"/>
<path d="M1362 475 l3 -40 150 0 150 0 3 40 3 40 -156 0 -156 0 3 -40z"/>
</g>
<g id="layer120" fill="#fcfcfc" stroke="none">
<path d="M3220 2376 c-7 -9 -8 -21 -3 -30 12 -21 164 -176 173 -176 4 0 13 6 19 14 10 12 1 27 -46 78 -32 36 -74 79 -94 96 -31 27 -38 30 -49 18z"/>
<path d="M1520 1711 c0 -504 2 -549 35 -699 14 -60 96 -86 115 -36 6 14 10 43 10 64 0 36 -2 39 -32 43 l-33 4 31 1 c22 2 33 8 37 22 4 17 0 20 -30 20 -21 0 -32 4 -28 11 4 6 19 7 35 4 22 -5 31 -2 39 14 15 27 16 27 -29 23 -25 -3 -40 0 -40 7 0 6 19 11 46 11 25 0 55 5 66 11 14 8 23 8 31 0 8 -8 119 -11 354 -11 222 0 343 -4 343 -10 0 -6 -120 -10 -341 -10 -319 0 -340 -1 -337 -17 3 -17 30 -18 343 -23 l340 -5 -342 -3 c-336 -2 -343 -2 -343 -22 0 -20 7 -20 343 -22 l342 -3 -340 -5 c-313 -5 -340 -6 -343 -22 -3 -17 18 -18 339 -18 188 0 340 -3 337 -6 -4 -3 -156 -6 -340 -7 l-333 -2 -3 -37 -3 -38 340 0 c334 0 341 0 341 -20 0 -20 -7 -20 -341 -20 l-340 0 -15 -35 c-7 -19 -14 -39 -14 -45 0 -7 130 -9 408 -8 l407 3 2 558 3 558 -28 10 c-15 6 -58 13 -97 16 -53 5 -78 12 -103 31 -29 22 -30 26 -16 36 14 11 13 14 -12 30 -22 15 -31 16 -46 7 -17 -11 -18 -10 -9 8 18 33 28 33 66 0 24 -22 42 -30 57 -26 11 3 48 -1 80 -9 33 -9 71 -13 84 -10 24 6 25 9 22 94 l-3 87 -527 3 -528 2 0 -509z m283 452 c-7 -2 -21 -2 -30 0 -10 3 -4 5 12 5 17 0 24 -2 18 -5z m-81 -23 c-61 -37 -85 -102 -62 -167 9 -26 9 -27 -5 -9 -42 55 18 196 84 196 9 0 2 -8 -17 -20z m115 13 c-4 -3 -10 -3 -14 0 -3 4 0 7 7 7 7 0 10 -3 7 -7z m69 -58 c9 -18 14 -38 11 -46 -3 -9 -6 -6 -6 8 -1 12 -16 39 -33 59 -24 27 -27 33 -11 23 12 -7 30 -27 39 -44z m-67 30 c63 -32 77 -132 24 -181 -76 -70 -193 -20 -193 84 0 38 5 49 36 78 40 38 85 45 133 19z m559 8 c-42 -2 -114 -2 -160 0 -46 1 -11 3 77 3 88 0 125 -2 83 -3z m-619 -244 c31 -6 32 -7 8 -8 -28 -1 -101 30 -112 49 -3 5 10 0 31 -12 20 -12 53 -25 73 -29z m484 -66 c-116 -2 -310 -2 -430 0 -120 1 -24 2 212 2 237 0 335 -1 218 -2z m0 -50 c-117 -2 -309 -2 -425 0 -117 1 -22 2 212 2 234 0 329 -1 213 -2z m202 -53 c4 -7 -138 -10 -420 -10 -282 0 -424 3 -420 10 4 6 155 10 420 10 265 0 416 -4 420 -10z m-202 -57 c-116 -2 -310 -2 -430 0 -120 1 -24 2 212 2 237 0 335 -1 218 -2z m0 -50 c-116 -2 -310 -2 -430 0 -120 1 -24 2 212 2 237 0 335 -1 218 -2z m207 -53 c0 -6 -130 -10 -370 -10 -240 0 -370 4 -370 10 0 6 130 10 370 10 240 0 370 -4 370 -10z m-2 -55 c3 -3 -185 -5 -417 -5 -232 0 -420 3 -418 8 6 8 827 6 835 -3z m-205 -52 c-116 -2 -310 -2 -430 0 -120 1 -24 2 212 2 237 0 335 -1 218 -2z m205 -48 c-7 -7 -839 -7 -846 0 -3 3 187 5 423 5 236 0 426 -2 423 -5z m2 -55 c0 -6 -130 -10 -371 -10 -244 0 -368 3 -364 10 4 6 138 10 371 10 236 0 364 -4 364 -10z m-207 -57 c-116 -2 -310 -2 -430 0 -120 1 -24 2 212 2 237 0 335 -1 218 -2z m205 -48 c-7 -7 -840 -6 -847 0 -2 3 188 5 424 5 236 0 426 -2 423 -5z"/>
<path d="M1721 2104 c-95 -79 3 -223 113 -165 69 37 58 154 -16 180 -46 16 -63 14 -97 -15z m112 -32 c9 -8 17 -29 17 -46 l0 -30 -45 44 c-24 24 -42 47 -39 52 7 11 44 0 67 -20z m-13 -104 c0 -4 -16 -8 -35 -8 -54 0 -87 46 -69 95 6 13 16 8 55 -31 27 -27 49 -52 49 -56z"/>
<path d="M1362 473 l3 -38 150 0 150 0 3 38 3 37 -156 0 -156 0 3 -37z"/>
<path d="M1650 386 c0 -8 5 -18 10 -21 6 -3 10 1 10 9 0 8 -4 18 -10 21 -5 3 -10 -1 -10 -9z"/>
<path d="M1650 321 c0 -6 5 -13 10 -16 6 -3 10 1 10 9 0 9 -4 16 -10 16 -5 0 -10 -4 -10 -9z"/>
</g>


</svg>